<svg xmlns="http://www.w3.org/2000/svg" fill="none" viewBox="0 0 48 48" id="List-Circle-Sharp--Streamline-Ionic-Sharp" height="48" width="48"><desc>List Circle Sharp Streamline Icon: https://streamlinehq.com</desc><path fill="#c4baaa" d="M24 0.48C11.0312 0.48 0.48 11.0312 0.48 24S11.0312 47.52 24 47.52c12.9687 0 23.52 -10.5512 23.52 -23.52S36.9687 0.48 24 0.48Zm-7.2369 32.5096c0 0.4798 -0.1907 0.9401 -0.53 1.2793s-0.7995 0.5299 -1.2792 0.5299h-1.8092c-0.4798 0 -0.9401 -0.1906 -1.2794 -0.5299s-0.5299 -0.7995 -0.5299 -1.2793v-1.8093c0 -0.4798 0.1906 -0.9399 0.5299 -1.2793 0.3393 -0.3392 0.7996 -0.5299 1.2794 -0.5299h1.8092c0.4797 0 0.9399 0.1907 1.2792 0.5299 0.3393 0.3394 0.53 0.7995 0.53 1.2793v1.8093Zm0 -8.0284c0 0.4798 -0.1907 0.9399 -0.53 1.2794 -0.3392 0.3391 -0.7995 0.5298 -1.2792 0.5298h-1.8092c-0.4798 0 -0.9401 -0.1907 -1.2794 -0.5298 -0.3393 -0.3395 -0.5299 -0.7996 -0.5299 -1.2794V23.152c0 -0.4799 0.1906 -0.9401 0.5299 -1.2794s0.7996 -0.5299 1.2794 -0.5299h1.8092c0.4797 0 0.9399 0.1906 1.2792 0.5299s0.53 0.7995 0.53 1.2794v1.8092Zm0 -8.1415c0 0.4798 -0.1907 0.9399 -0.53 1.2793 -0.3392 0.3392 -0.7995 0.5299 -1.2792 0.5299h-1.8092c-0.4798 0 -0.9401 -0.1907 -1.2794 -0.5299 -0.3393 -0.3394 -0.5299 -0.7995 -0.5299 -1.2793v-1.8093c0 -0.4798 0.1906 -0.9401 0.5299 -1.2793s0.7996 -0.5299 1.2794 -0.5299h1.8092c0.4797 0 0.9399 0.1906 1.2792 0.5299s0.53 0.7995 0.53 1.2793v1.8093Zm19.9015 17.0745H19.1004v-3.6185h17.5642v3.6185Zm0 -8.0284H19.1004v-3.6185h17.5642v3.6185Zm0 -8.1415H19.1004v-3.6185h17.5642v3.6185Z" stroke-width="1"></path></svg>