<svg role="img" viewBox="0 0 16 16" xmlns="http://www.w3.org/2000/svg" id="Whatsapp--Streamline-Simple-Icons" height="16" width="16"><desc>Whatsapp Streamline Icon: https://streamlinehq.com</desc><title>WhatsApp</title><path d="M11.648 9.588c-0.19799999999999998 -0.09933333333333333 -1.172 -0.578 -1.353333333333333 -0.6446666666666666 -0.182 -0.066 -0.31399999999999995 -0.09866666666666665 -0.44666666666666666 0.09999999999999999 -0.13133333333333333 0.19799999999999998 -0.5113333333333333 0.6439999999999999 -0.6266666666666666 0.7759999999999999 -0.11533333333333332 0.13266666666666665 -0.2313333333333333 0.14866666666666667 -0.42933333333333334 0.049999999999999996 -0.19799999999999998 -0.09999999999999999 -0.8366666666666666 -0.30866666666666664 -1.5933333333333333 -0.9833333333333334 -0.5886666666666667 -0.5253333333333333 -0.9866666666666666 -1.174 -1.1019999999999999 -1.3726666666666667 -0.11533333333333332 -0.19799999999999998 -0.011999999999999999 -0.30533333333333335 0.08666666666666667 -0.40399999999999997 0.08933333333333333 -0.08866666666666667 0.19866666666666666 -0.2313333333333333 0.29733333333333334 -0.3466666666666667 0.09933333333333333 -0.11599999999999999 0.132 -0.19866666666666666 0.19866666666666666 -0.3313333333333333 0.066 -0.132 0.03333333333333333 -0.24733333333333332 -0.016666666666666666 -0.3466666666666667 -0.049999999999999996 -0.09933333333333333 -0.446 -1.0746666666666667 -0.6106666666666667 -1.4713333333333332 -0.16133333333333333 -0.38599999999999995 -0.32466666666666666 -0.3333333333333333 -0.446 -0.33999999999999997 -0.11533333333333332 -0.005333333333333333 -0.24733333333333332 -0.006666666666666666 -0.37999999999999995 -0.006666666666666666 -0.132 0 -0.3466666666666667 0.049333333333333326 -0.528 0.248 -0.18133333333333335 0.19799999999999998 -0.6933333333333334 0.6773333333333333 -0.6933333333333334 1.6526666666666667 0 0.9746666666666666 0.71 1.9166666666666665 0.8086666666666666 2.0493333333333332 0.09933333333333333 0.132 1.3973333333333333 2.1333333333333333 3.3846666666666665 2.9913333333333334 0.4726666666666666 0.204 0.8413333333333333 0.32599999999999996 1.1293333333333333 0.41666666666666663 0.4746666666666666 0.15133333333333332 0.9066666666666667 0.13 1.2473333333333332 0.07866666666666666 0.3806666666666666 -0.05666666666666667 1.172 -0.4793333333333333 1.337333333333333 -0.942 0.16533333333333333 -0.4626666666666666 0.16533333333333333 -0.8593333333333333 0.11533333333333332 -0.942 -0.049333333333333326 -0.08266666666666667 -0.18133333333333335 -0.132 -0.37999999999999995 -0.2313333333333333m-3.614 4.9353333333333325h-0.0026666666666666666a6.579999999999999 6.579999999999999 0 0 1 -3.3539999999999996 -0.9186666666666665l-0.24066666666666664 -0.14266666666666666 -2.4939999999999998 0.6546666666666666 0.6653333333333333 -2.432 -0.15666666666666665 -0.24933333333333332a6.573333333333332 6.573333333333332 0 0 1 -1.0066666666666666 -3.5066666666666664c0.0006666666666666666 -3.6333333333333333 2.957333333333333 -6.589333333333333 6.592 -6.589333333333333 1.76 0 3.4146666666666663 0.6866666666666666 4.658666666666667 1.932a6.549999999999999 6.549999999999999 0 0 1 1.9286666666666665 4.6626666666666665c-0.002 3.6333333333333333 -2.958 6.589333333333333 -6.59 6.589333333333333m5.608666666666666 -12.198A7.876666666666666 7.876666666666666 0 0 0 8.033333333333333 0C3.663333333333333 0 0.10666666666666666 3.5566666666666666 0.10466666666666666 7.927999999999999c0 1.3973333333333333 0.3646666666666667 2.7613333333333334 1.0586666666666666 3.9633333333333334L0.038 16l4.203333333333333 -1.1026666666666665a7.921333333333333 7.921333333333333 0 0 0 3.7886666666666664 0.9653333333333333h0.003333333333333333c4.3693333333333335 0 7.926666666666667 -3.5566666666666666 7.9286666666666665 -7.9286666666666665a7.8806666666666665 7.8806666666666665 0 0 0 -2.32 -5.608666666666666Z" fill="#000000" stroke-width="0.6667"></path></svg>